<?xml version="1.0" encoding="utf-8"?>
<!-- Generator: Adobe Illustrator 23.0.1, SVG Export Plug-In . SVG Version: 6.00 Build 0)  -->
<svg version="1.1" id="Capa_1" xmlns="http://www.w3.org/2000/svg" xmlns:xlink="http://www.w3.org/1999/xlink" x="0px" y="0px"
	 viewBox="0 0 44.09 17.34" style="enable-background:new 0 0 44.09 17.34;" xml:space="preserve">
<g>
	<path d="M4.95,9.23H0V7.18h4.95V9.23z"/>
	<path d="M9.37,4.17l0.08,1.06C10.12,4.41,11.03,4,12.18,4c1.22,0,2.07,0.48,2.52,1.45C15.37,4.48,16.32,4,17.56,4
		c1.03,0,1.8,0.3,2.3,0.9s0.76,1.5,0.76,2.71v6.07h-2.55V7.62c0-0.54-0.11-0.93-0.32-1.18s-0.58-0.37-1.12-0.37
		c-0.76,0-1.29,0.36-1.58,1.09l0.01,6.53h-2.54V7.63c0-0.55-0.11-0.95-0.33-1.2s-0.59-0.37-1.11-0.37c-0.72,0-1.24,0.3-1.56,0.9
		v6.72H6.99V4.17H9.37z"/>
	<path d="M23.26,13.68V6.04h-1.42V4.17h1.42V3.37c0-1.07,0.31-1.89,0.92-2.48S25.65,0,26.75,0c0.35,0,0.78,0.06,1.29,0.18
		l-0.03,1.97c-0.21-0.05-0.47-0.08-0.77-0.08c-0.96,0-1.43,0.45-1.43,1.34v0.76h1.89v1.86h-1.89v7.65H23.26z"/>
	<path d="M37.58,9.02c0,1.46-0.33,2.64-1,3.52c-0.67,0.88-1.56,1.32-2.69,1.32c-0.96,0-1.74-0.33-2.33-1v4.48h-2.54V4.17h2.36
		l0.09,0.93C32.08,4.37,32.88,4,33.87,4c1.17,0,2.08,0.43,2.73,1.3s0.98,2.06,0.98,3.59V9.02z M35.04,8.83
		c0-0.88-0.16-1.57-0.47-2.05s-0.77-0.72-1.37-0.72c-0.8,0-1.34,0.3-1.64,0.91v3.89c0.31,0.63,0.86,0.94,1.66,0.94
		C34.44,11.81,35.04,10.82,35.04,8.83z"/>
	<path d="M44.09,9.23h-4.95V7.18h4.95V9.23z"/>
</g>
</svg>
